<?xml version="1.0" standalone="no"?>
<!DOCTYPE svg PUBLIC "-//W3C//DTD SVG 20010904//EN"
 "http://www.w3.org/TR/2001/REC-SVG-20010904/DTD/svg10.dtd">
<svg version="1.0" xmlns="http://www.w3.org/2000/svg"
 width="1134.000000pt" height="1134.000000pt" viewBox="0 0 1134.000000 1134.000000"
 preserveAspectRatio="xMidYMid meet">
<metadata>
Created by potrace 1.14, written by Peter Selinger 2001-2017
</metadata>
<g transform="translate(0.000000,1134.000000) scale(0.100000,-0.100000)"
fill="#000000" stroke="none">
<path d="M3321 7335 l0 -2135 32 -1 c18 -1 43 -2 57 -4 14 -1 61 -5 105 -9 44
-4 100 -9 125 -12 110 -12 127 -14 160 -19 19 -2 53 -7 75 -10 157 -21 521
-90 587 -111 9 -2 26 -7 37 -9 51 -10 268 -70 386 -106 215 -68 550 -190 568
-208 12 -12 -47 -137 -95 -199 -95 -122 -295 -219 -533 -257 -75 -11 -240 -7
-317 9 -110 23 -159 40 -280 101 -58 29 -114 55 -125 56 -87 13 -162 -79 -133
-164 14 -45 39 -67 140 -120 70 -37 264 -113 293 -115 7 0 17 -2 92 -18 66
-13 301 -13 375 1 110 20 110 20 29 -41 -101 -76 -239 -152 -395 -218 -111
-47 -214 -97 -309 -150 -119 -66 -320 -230 -432 -351 -57 -62 -87 -87 -108
-90 -401 -63 -667 -174 -866 -360 -112 -105 -209 -286 -209 -394 0 -92 102
-152 186 -108 37 19 59 50 69 97 28 136 153 270 334 360 68 34 275 110 300
110 5 0 -12 -46 -39 -102 -63 -134 -114 -283 -150 -438 -17 -69 -34 -141 -40
-160 -37 -138 -36 -193 5 -235 69 -68 176 -44 209 48 8 23 36 130 61 237 49
202 109 371 177 499 134 251 327 462 576 630 l62 42 -6 -48 c-9 -65 -10 -227
-1 -288 7 -48 9 -60 23 -130 28 -144 175 -436 257 -513 68 -64 182 -34 206 55
13 46 0 83 -55 165 -132 198 -192 396 -180 603 6 117 10 137 38 228 l21 67 94
45 c306 145 601 396 780 666 25 38 48 69 50 69 2 0 2 -3 0 -7 -3 -5 -8 -30
-11 -58 -3 -27 -7 -59 -10 -70 -60 -288 -19 -469 146 -640 64 -66 91 -124 94
-205 3 -89 -24 -159 -86 -219 -25 -25 -129 -109 -229 -185 -100 -76 -188 -151
-196 -167 -63 -120 79 -235 192 -156 22 15 48 35 59 45 10 9 44 35 74 57 30
22 58 44 63 50 25 35 39 -97 23 -228 -9 -75 -52 -179 -105 -254 -23 -33 -44
-76 -47 -95 -8 -47 20 -104 59 -125 39 -20 101 -19 133 2 61 40 160 216 195
350 30 112 31 334 2 453 l-21 83 48 72 c81 122 111 270 83 408 -24 117 -67
196 -162 298 -109 117 -116 164 -66 461 2 14 14 84 25 155 12 72 23 131 24
132 1 1 18 -55 38 -125 174 -605 174 -603 304 -739 69 -72 128 -156 192 -270
145 -265 173 -474 86 -662 -37 -80 -42 -126 -20 -170 38 -72 144 -85 204 -25
20 20 88 172 102 229 18 71 21 257 6 335 -18 88 -47 193 -57 205 -5 5 -9 15
-9 22 0 7 -12 37 -26 66 -45 91 -45 94 -21 95 35 0 118 11 127 17 37 23 181
23 248 1 115 -38 188 -112 243 -244 88 -212 202 -392 344 -538 102 -107 97
-94 80 -189 -18 -100 0 -261 43 -386 54 -155 109 -216 186 -206 102 14 136
102 83 219 -14 31 -33 83 -41 115 -15 60 -30 173 -22 173 2 0 53 -24 113 -54
115 -58 338 -137 389 -139 103 -3 167 103 114 190 -24 39 -28 42 -176 91 -310
103 -552 281 -722 531 -51 74 -102 161 -102 174 0 2 31 -1 70 -8 170 -29 377
0 535 75 100 48 230 142 251 182 40 78 0 169 -82 184 -49 9 -78 -1 -142 -50
-75 -57 -137 -91 -220 -118 -89 -30 -293 -32 -392 -4 -97 27 -202 79 -267 131
-74 61 -156 101 -251 125 -100 26 -181 25 -321 -2 -101 -19 -121 -20 -174 -9
-102 21 -190 77 -245 157 -23 33 -65 134 -59 141 2 2 33 -3 68 -11 79 -19 221
-15 304 8 77 22 121 56 136 105 14 48 7 80 -27 120 -35 42 -80 49 -168 26 -88
-23 -156 -23 -225 0 -50 16 -138 74 -154 101 -4 7 -14 19 -21 26 -7 8 -21 28
-29 45 -17 33 -87 261 -87 284 0 8 19 22 43 31 23 9 89 35 147 58 227 89 548
191 775 247 131 31 418 91 475 99 25 3 52 7 60 9 18 5 214 33 285 41 28 3 64
7 80 9 17 2 64 7 105 10 41 4 91 8 110 10 19 2 50 4 68 4 l32 1 0 2136 0 2135
-47 -5 c-27 -3 -79 -8 -118 -12 -129 -11 -150 -13 -200 -19 -27 -3 -68 -8 -90
-11 -39 -4 -104 -14 -135 -19 -8 -1 -49 -8 -90 -14 -41 -7 -129 -23 -195 -37
-66 -13 -129 -26 -140 -28 -90 -18 -352 -88 -456 -122 -41 -13 -84 -26 -95
-29 -42 -8 -269 -92 -454 -167 -107 -44 -225 -91 -262 -106 l-67 -26 0 -421
c0 -231 -1 -1045 -1 -1810 -1 -1455 -2 -1472 -44 -1616 -18 -60 -57 -149 -65
-149 -10 0 -61 160 -82 255 -17 75 -18 199 -18 1904 -1 1325 -4 1828 -12 1838
-6 7 -15 13 -20 13 -5 0 -96 36 -202 79 -226 93 -343 137 -527 198 -128 43
-356 109 -410 119 -14 3 -59 14 -100 24 -113 28 -256 56 -425 84 -70 12 -235
35 -290 41 -33 3 -73 8 -90 10 -16 2 -66 7 -110 10 -44 3 -99 8 -122 11 l-42
5 0 -2136z"/>
<path d="M2789 8806 c0 -41 0 -4150 0 -4198 l1 -38 1218 1 c1209 0 1217 1
1174 20 -54 24 -343 120 -477 159 -257 74 -567 141 -812 175 -62 9 -121 18
-132 20 -11 2 -45 6 -75 9 -52 6 -86 9 -206 20 -25 3 -81 7 -125 11 -185 14
-209 21 -234 68 -10 19 -13 421 -14 1903 l-2 1879 -157 1 -158 2 -1 -32z"/>
<path d="M8442 6955 c0 -1815 -1 -1885 -19 -1909 -10 -14 -29 -30 -43 -36 -29
-12 -64 -16 -315 -35 -56 -5 -95 -8 -205 -21 -25 -2 -72 -9 -105 -14 -33 -5
-107 -16 -165 -25 -353 -55 -743 -155 -1105 -283 l-160 -57 1214 -3 c668 -1
1216 0 1219 2 7 7 5 4243 -2 4255 -4 6 -67 10 -160 9 l-154 0 0 -1883z"/>
</g>
</svg>
