<svg xmlns="http://www.w3.org/2000/svg" xmlns:xlink="http://www.w3.org/1999/xlink" width="16" height="16" preserveAspectRatio="xMidYMid meet" viewBox="0 0 16 16" style="-ms-transform: rotate(360deg); -webkit-transform: rotate(360deg); transform: rotate(360deg);"><g fill="none"><path d="M10.309 2.038a.5.5 0 0 1 .545.108l3.5 3.5a.5.5 0 0 1 0 .708l-3.5 3.5A.5.5 0 0 1 10 9.5V8.003c-.587.01-1.178.05-1.8.228c-.788.225-1.652.678-2.596 1.623a.5.5 0 0 1-.852-.404c.156-1.56.618-2.934 1.562-3.92C7.18 4.623 8.4 4.101 10 4.013V2.5a.5.5 0 0 1 .309-.462zM3 5.5A1.5 1.5 0 0 1 4.5 4h1a.5.5 0 0 0 0-1h-1A2.5 2.5 0 0 0 2 5.5v6A2.5 2.5 0 0 0 4.5 14h6a2.5 2.5 0 0 0 2.5-2.5v-1a.5.5 0 0 0-1 0v1a1.5 1.5 0 0 1-1.5 1.5h-6A1.5 1.5 0 0 1 3 11.5v-6z" fill="#d45500"/></g><rect x="0" y="0" width="16" height="16" fill="rgba(0, 0, 0, 0)" /></svg>